<?xml version="1.0" encoding="iso-8859-1"?>
<!-- Generator: Adobe Illustrator 13.0.0, SVG Export Plug-In . SVG Version: 6.00 Build 14948)  -->
<!DOCTYPE svg PUBLIC "-//W3C//DTD SVG 1.1//EN" "http://www.w3.org/Graphics/SVG/1.1/DTD/svg11.dtd">
<svg version="1.1" id="Layer_1" xmlns="http://www.w3.org/2000/svg" xmlns:xlink="http://www.w3.org/1999/xlink" x="0px" y="0px"
	 width="39.857px" height="304.364px" viewBox="0 0 39.857 304.364" style="enable-background:new 0 0 39.857 304.364;"
	 xml:space="preserve">
<g>
	<g>
		<path style="fill:#FFFFFF;" d="M26.272,304.364h-1.999h-7.998h-1.999v-1.999V52.811C5.914,50.336,0,42.547,0,33.696
			c0-8.983,6.056-16.837,14.597-19.203l1.695-12.759L16.522,0h1.752h4h1.752l0.23,1.735l1.725,12.989
			c8.236,2.611,13.876,10.224,13.876,18.972c0,8.626-5.512,16.176-13.585,18.875v249.793V304.364L26.272,304.364z M19.93,21.185
			c-6.9,0-12.514,5.613-12.514,12.512c0,6.9,5.613,12.514,12.514,12.514s12.514-5.614,12.514-12.514
			C32.443,26.798,26.83,21.185,19.93,21.185L19.93,21.185z"/>
	</g>
</g>
<linearGradient id="SVGID_1_" gradientUnits="userSpaceOnUse" x1="19.9292" y1="294.4502" x2="19.9292" y2="5.1162">
	<stop  offset="0" style="stop-color:#000000"/>
	<stop  offset="0.32" style="stop-color:#180304"/>
	<stop  offset="1" style="stop-color:#E92128"/>
</linearGradient>
<path style="fill:url(#SVGID_1_);" d="M37.858,33.696c0-8.437-5.835-15.493-13.686-17.402L22.274,1.999h-4l-1.875,14.121
	C8.188,17.759,2,25.003,2,33.696c0,8.65,6.125,15.867,14.274,17.554v251.116h8V51.073C32.073,49.128,37.858,42.097,37.858,33.696z
	 M19.929,48.208c-8.014,0-14.512-6.497-14.512-14.512c0-8.014,6.498-14.512,14.512-14.512c8.016,0,14.513,6.498,14.513,14.512
	C34.441,41.711,27.944,48.208,19.929,48.208z"/>
</svg>
