<?xml version="1.0" encoding="iso-8859-1"?>
<!-- Generator: Adobe Illustrator 13.0.0, SVG Export Plug-In . SVG Version: 6.00 Build 14948)  -->
<!DOCTYPE svg PUBLIC "-//W3C//DTD SVG 1.1//EN" "http://www.w3.org/Graphics/SVG/1.1/DTD/svg11.dtd">
<svg version="1.1" id="Layer_1" xmlns="http://www.w3.org/2000/svg" xmlns:xlink="http://www.w3.org/1999/xlink" x="0px" y="0px"
	 width="65px" height="76px" viewBox="136.857 166.253 65 76" style="enable-background:new 136.857 166.253 65 76;"
	 xml:space="preserve">
<g>
	<path style="fill:#ee2f21;" d="M191.361,188.677l0.019,0.011l-0.093-0.086c-0.848-0.867-1.741-1.685-2.682-2.449l-19.241-17.567
		l-19.247,17.562c-0.941,0.763-1.836,1.582-2.682,2.451l-0.094,0.081l0.02-0.008c-5.269,5.442-8.512,12.825-8.512,20.968
		c-0.002,16.723,13.652,30.28,30.504,30.282c16.847,0.002,30.512-13.551,30.513-30.274
		C199.869,201.505,196.626,194.123,191.361,188.677z M156.134,232.366c-12.626-7.235-16.965-23.319-9.674-35.849
		c7.292-12.528,23.495-16.836,36.122-9.601c12.626,7.235,16.964,23.317,9.672,35.849
		C184.963,235.294,168.759,239.604,156.134,232.366z"/>
	<path style="fill:#000000;" d="M156.134,232.366c-12.626-7.235-16.965-23.319-9.674-35.849
		c7.292-12.528,23.495-16.836,36.122-9.601c12.626,7.235,16.964,23.317,9.672,35.849
		C184.963,235.294,168.759,239.604,156.134,232.366z"/>
</g>
</svg>
