<svg version="1.1" class="svg-shadow" id="Layer_1" xmlns="http://www.w3.org/2000/svg" xmlns:xlink="http://www.w3.org/1999/xlink" x="0px" y="0px"
	 width="65px" height="76px" viewBox="136.857 166.253 65 76" style="enable-background:new 136.857 166.253 65 76;"
	 xml:space="preserve">
	<g>
		<path style="fill:#dfdfdf;" d="M169.356,242.253h-0.004c-17.921-0.002-32.498-14.475-32.496-32.261
		c0.003-8.362,3.224-16.294,9.066-22.335l0.045-0.048l0.033-0.037l0.053-0.046c0.875-0.897,1.807-1.749,2.771-2.533l19.191-17.509
		l1.349-1.231l1.348,1.231l19.194,17.523c0.972,0.797,1.92,1.661,2.81,2.57l0.037,0.033c5.89,6.097,9.107,14.031,9.104,22.391
		C201.857,227.786,187.277,242.253,169.356,242.253L169.356,242.253z M169.402,185.736c-8.735,0-16.866,4.646-21.22,12.126
		c-3.259,5.601-4.122,12.138-2.431,18.407c1.693,6.269,5.731,11.506,11.379,14.74c3.705,2.123,7.917,3.245,12.181,3.245
		c8.735,0,16.866-4.646,21.219-12.124c3.259-5.604,4.124-12.141,2.434-18.41c-1.691-6.268-5.731-11.502-11.377-14.737
		C177.878,186.858,173.666,185.736,169.402,185.736L169.402,185.736z"/>
		
		<path style="fill:#433f3c;" d="M191.362,188.677l0.018,0.01l-0.093-0.085c-0.847-0.868-1.741-1.685-2.682-2.45l-19.241-17.567
			l-19.247,17.562c-0.941,0.762-1.836,1.581-2.682,2.45l-0.093,0.082l0.019-0.008c-5.268,5.442-8.511,12.825-8.512,20.967
			c-0.002,16.723,13.653,30.281,30.504,30.283c16.847,0.002,30.512-13.551,30.513-30.274
			C199.869,201.505,196.626,194.123,191.362,188.677z M156.134,232.366c-12.626-7.235-16.965-23.319-9.674-35.848
			c7.292-12.529,23.495-16.837,36.122-9.601c12.626,7.235,16.964,23.317,9.672,35.849
			C184.963,235.294,168.759,239.603,156.134,232.366z"/>
	</g>
</svg>